# xmcd
#
# Track frame offsets:
#	150
#	17657
#	32617
#	47572
#	65753
#	81628
#	95955
#	113970
#	130151
#	145915
#
# Disc length: 2191 seconds
#
# Revision: 0
# Processed by: cddbd v1.5.1PL0 Copyright (c) Steve Scherf et al.
# Submitted via: EasyCDDAExtractor 8.0.2.1
#
DISCID=90088d0a
DTITLE=Danni O'Neill - Picture Perfect
DYEAR=2005
DGENRE=Country
TTITLE0=Breakin' It Down
TTITLE1=What Is Me
TTITLE2=Picture Perfect
TTITLE3=How Can I Lose
TTITLE4=Take Me Away
TTITLE5=Love Done Done
TTITLE6=Be With Me
TTITLE7=The Box
TTITLE8=You
TTITLE9=Echoes In The Silence
EXTD=
EXTT0=
EXTT1=
EXTT2=
EXTT3=
EXTT4=
EXTT5=
EXTT6=
EXTT7=
EXTT8=
EXTT9=
PLAYORDER=
